PathFileType	4	(X/Y/Z)	C:\Users\Basilio\Documents\Thesis Gigler\squatting_fais\c3dfiles\040\SJ_pre2\markers_experimental.trc
DataRate	CameraRate	NumFrames	NumMarkers	Units	OrigDataRate	OrigDataStartFrame	OrigNumFrames
200.000000	200.000000	4	64	mm	200.000000	996	1328
Frame#	Time	FHD			LBHD			RBHD			C7			T10			CLAV			LSHO			LUUPA			LMUPA			LDUPA			LLEP			LMEP			LRAD			LUL			LRFIN			RSHO			RUPA1			RMUPA			RDUPA			RLEP			RMEP			RRAD			RUL			RUFIN			RASI			USACR			LSACR			RSACR			LTHI1			LTHI2			LTHI3			LTHI4			LLFC			LMFC			LTIB1			LTIB2			LTIB3			LTIB4			LLMAL			LMMAL			LHEE			LMT1			LMT2			LMT5			RTHI			RTHI2			RTHI3			RTHI4			RLFC			RMFC			RTIB1			RTIB2			RTIB3			RTIB4			RLMAL			RMMAL			RHEE			RMT1			RMT2			RMT5			LASI			*61			*62			*63			
		X1	Y1	Z1	X2	Y2	Z2	X3	Y3	Z3	X4	Y4	Z4	X5	Y5	Z5	X6	Y6	Z6	X7	Y7	Z7	X8	Y8	Z8	X9	Y9	Z9	X10	Y10	Z10	X11	Y11	Z11	X12	Y12	Z12	X13	Y13	Z13	X14	Y14	Z14	X15	Y15	Z15	X16	Y16	Z16	X17	Y17	Z17	X18	Y18	Z18	X19	Y19	Z19	X20	Y20	Z20	X21	Y21	Z21	X22	Y22	Z22	X23	Y23	Z23	X24	Y24	Z24	X25	Y25	Z25	X26	Y26	Z26	X27	Y27	Z27	X28	Y28	Z28	X29	Y29	Z29	X30	Y30	Z30	X31	Y31	Z31	X32	Y32	Z32	X33	Y33	Z33	X34	Y34	Z34	X35	Y35	Z35	X36	Y36	Z36	X37	Y37	Z37	X38	Y38	Z38	X39	Y39	Z39	X40	Y40	Z40	X41	Y41	Z41	X42	Y42	Z42	X43	Y43	Z43	X44	Y44	Z44	X45	Y45	Z45	X46	Y46	Z46	X47	Y47	Z47	X48	Y48	Z48	X49	Y49	Z49	X50	Y50	Z50	X51	Y51	Z51	X52	Y52	Z52	X53	Y53	Z53	X54	Y54	Z54	X55	Y55	Z55	X56	Y56	Z56	X57	Y57	Z57	X58	Y58	Z58	X59	Y59	Z59	X60	Y60	Z60	X61	Y61	Z61	X62	Y62	Z62	X63	Y63	Z63	X64	Y64	Z64	

997	4.98	-129.5159301757813	1218.269165039063	-862.0814208984377	-247.5473175048829	1148.108276367188	-901.0150146484377	-293.1451721191407	1103.494873046875	-767.9170532226564	-292.0137329101563	1036.753784179688	-815.9865722656252	-490.4700317382814	804.7032470703127	-812.3142089843752	-206.2270965576172	911.0450439453127	-819.6940917968752	-206.977279663086	965.467224121094	-990.5896606445315	-326.7555236816407	894.3713989257815	-1146.24072265625	-346.6030883789063	850.8836669921877	-1138.941528320313	-376.3229980468751	867.5683593750002	-1188.1201171875	-429.1456298828126	848.6103515625002	-1228.569458007813	-477.8420410156251	898.7749633789065	-1198.701171875	-604.6297607421876	707.9653930664064	-1031.333984375	-586.1917114257814	651.9960327148439	-1077.5498046875	-553.6292724609376	689.2875366210939	-990.338317871094	-191.6472320556641	950.3914794921877	-652.6785278320314	-293.6629333496094	917.2656250000002	-479.1109008789064	-303.1550903320313	869.8579711914065	-472.5157775878907	-331.0192871093751	894.0149536132815	-424.746551513672	-373.3909301757813	849.047790527344	-382.1201171875001	-444.2750854492189	886.4864501953127	-413.1853027343751	-489.0232238769532	686.7446289062501	-588.8362426757814	-469.063934326172	627.0302124023439	-545.0352172851564	-443.0443420410157	670.3154296875001	-645.0152587890626	nan	nan	nan	-600.8133544921876	701.3533325195314	-802.0618896484377	-626.4637451171876	679.0798950195314	-829.9631958007815	-622.9163818359376	676.9749755859376	-773.4219360351565	-452.4500427246095	478.0477294921876	-1060.286254882813	-374.3603820800782	493.9800720214845	-1092.11376953125	-358.3325805664063	537.0125732421876	-1086.356323242188	-331.9665527343751	453.3115539550782	-1104.010498046875	-223.9017791748047	433.3222961425782	-1137.831420898438	-193.0254211425782	385.686737060547	-1021.164978027344	-277.6679687500001	235.2653350830079	-1111.3427734375	-365.3892517089844	251.2278747558594	-1130.93896484375	-333.0887145996094	219.5246734619141	-1124.992797851563	-365.9147644042969	148.5166931152344	-1094.511474609375	-469.2822570800782	105.1006317138672	-1092.116943359375	-415.8543090820314	99.71126556396487	-1020.166625976563	-528.9224853515626	49.59510803222658	-1045.454711914063	-308.9436950683594	55.24662017822267	-1082.479858398438	-321.6102600097657	53.72262573242189	-1127.778686523438	-378.4761352539063	31.94442176818848	-1165.40869140625	-421.1898803710939	504.4802551269532	-558.6308593750001	-358.0100402832032	513.1296997070314	-538.6761474609376	-341.0068969726563	542.2306518554689	-545.7672119140626	-304.1702270507813	451.7344055175782	-516.4941406250001	-222.3965301513672	413.5360412597657	-490.4595642089845	-176.7181396484375	389.1221313476564	-616.7266235351564	-263.6692199707032	246.6825714111329	-518.2280273437501	-372.9883728027344	237.477523803711	-529.8055419921876	-337.6878356933594	205.1402893066407	-526.5690917968751	-345.9372558593751	157.7749786376953	-558.4474487304689	-457.3300781250001	101.3356323242188	-568.9167480468751	-406.680633544922	96.05366516113284	-642.4367675781251	-509.3618469238282	50.57297515869142	-639.7655639648439	-303.9395141601563	54.8936004638672	-550.3964233398439	-323.1433715820313	57.31777954101564	-515.0648803710939	-384.609100341797	36.79138565063477	-484.0885314941407	-461.8691711425782	599.7306518554689	-921.1619262695315	nan	nan	nan	nan	nan	nan	nan	nan	nan	
998	4.985	-133.1129913330078	1225.145141601563	-861.486267089844	-249.2096405029297	1153.783813476563	-900.6975708007815	-295.0633544921876	1109.226196289063	-767.4952392578126	-293.3681030273438	1042.90771484375	-815.9036254882815	-491.3027343750001	810.109069824219	-812.2559204101565	-207.2838745117188	917.279724121094	-819.399108886719	-207.9867706298829	971.5435180664065	-990.260925292969	-327.2338867187501	900.107604980469	-1146.057006835938	-347.2636108398438	856.4116210937502	-1138.744995117188	-377.0206298828126	873.0017089843752	-1187.799072265625	-430.0997314453126	854.0307617187502	-1228.20849609375	-478.5745849609376	904.369323730469	-1198.553588867188	-605.6022949218751	713.7011108398439	-1031.005859375	-587.9677124023439	658.2153930664064	-1077.695556640625	-554.5497436523439	694.6770019531251	-990.0571899414065	-192.7485809326172	956.538024902344	-652.4459838867189	-295.3137207031251	923.2447509765627	-478.7471923828126	-304.1983032226563	874.5249023437502	-472.3514709472657	-332.2068481445313	899.4331665039065	-424.365936279297	-374.4746093750001	854.2706298828127	-382.2397155761719	-445.5504455566407	891.939147949219	-413.4441833496095	-489.5048217773439	691.6874389648439	-588.9960937500001	-469.4467163085939	632.3121948242189	-545.2736816406251	-443.4297790527345	675.0403442382814	-645.0744628906251	nan	nan	nan	-601.1630859375001	706.7579956054689	-802.0065917968752	-625.7532348632814	684.3069458007814	-829.5463867187502	-623.6798706054689	682.5733642578126	-773.3952636718752	-453.3254699707032	481.4037475585939	-1060.112182617188	-375.1902160644532	496.6491699218751	-1091.946411132813	-359.0045471191407	539.7056274414064	-1086.474853515625	-333.5846862792969	456.3641967773439	-1103.753051757813	-225.2228393554688	434.5144958496095	-1137.400390625	-195.3592071533204	387.8604431152345	-1021.086975097656	-278.2398376464844	235.5997161865235	-1111.0283203125	-366.1050720214844	251.5439605712891	-1130.94384765625	-333.8487548828126	219.9296264648438	-1125.000854492188	-366.3653869628907	149.0294036865235	-1094.712524414063	-469.510711669922	105.0139236450196	-1092.368896484375	-416.0498352050782	99.8591003417969	-1020.361206054688	-529.0341186523439	49.43668746948244	-1045.55126953125	-309.0762939453126	55.24725723266603	-1082.389404296875	-321.6504516601563	53.78734970092775	-1127.762817382813	-378.4972534179688	31.93706512451173	-1165.488891601563	-422.2492675781251	508.0615844726564	-558.4468994140626	-358.7317504882813	515.9238281250001	-538.3967895507814	-341.9006958007813	544.7651367187501	-545.3187866210939	-305.9447937011719	453.7730407714845	-517.2812500000001	-223.6413269042969	414.8523254394532	-490.9713134765626	-178.4974365234375	390.6331787109376	-616.5228271484376	-264.5617980957032	247.5346221923829	-518.3233032226564	-373.8619689941407	237.6792144775391	-529.7095947265626	-338.3119506835938	205.5513916015626	-526.3638305664064	-346.6029357910157	158.0265808105469	-558.2702636718751	-457.6065063476564	101.2425155639649	-568.6773071289064	-406.9034118652345	96.3691101074219	-642.1421508789064	-509.472869873047	50.48288726806642	-639.6490478515626	-304.0086975097657	54.91018295288087	-550.4176635742189	-323.2841186523438	57.37852096557619	-515.0458374023439	-384.6311950683595	36.81262969970704	-484.0892639160157	-463.0390930175782	605.3435058593751	-921.2673339843752	nan	nan	nan	nan	nan	nan	nan	nan	nan	
999	4.99	-136.1158447265625	1232.383666992188	-861.478942871094	-251.3443908691407	1159.896606445313	-900.3020019531252	-296.0437011718751	1114.464111328125	-767.6018066406251	-295.1352233886719	1049.042358398438	-815.579772949219	-492.0043334960939	815.4548950195315	-812.390319824219	-208.8270416259766	924.0714111328127	-818.821228027344	-208.8296813964844	977.3330688476565	-989.9656372070315	-328.0043945312501	905.440856933594	-1145.800659179688	-348.1800537109376	862.090270996094	-1138.407836914063	-377.6114196777344	878.3627929687502	-1187.709716796875	-430.646209716797	859.5019531250002	-1228.0517578125	-479.1003417968751	910.0018310546877	-1198.5810546875	-606.3369140625001	719.4790039062501	-1030.731689453125	-588.7320556640626	663.9685668945314	-1077.572998046875	-554.3491821289064	700.1032714843751	-989.6976318359377	-193.6114044189454	963.1478271484377	-652.3571777343751	-296.5141906738282	929.1919555664065	-478.8656005859376	-305.5755310058594	880.416442871094	-472.3394165039064	-333.6569824218751	905.1811523437502	-424.2308044433595	-375.6866149902344	859.3292236328127	-382.0525207519532	-447.0389404296876	896.9553833007815	-413.6347045898439	-489.9794311523439	696.7336425781251	-588.9920654296876	-470.0441894531251	637.4171142578126	-545.1074829101564	-444.0238037109376	680.3204345703126	-644.9060058593751	nan	nan	nan	-601.7205200195314	712.2061767578126	-801.9688110351565	-626.1741333007814	689.5825805664064	-829.612976074219	-623.6044921875001	687.7392578125001	-773.2741699218752	-454.4017639160157	484.947479248047	-1060.01123046875	-376.0488281250001	499.4299926757814	-1091.6513671875	-359.7512207031251	542.6864013671876	-1086.593505859375	-334.6409606933594	458.5010375976564	-1103.43994140625	-226.3091735839844	435.526092529297	-1136.885620117188	-196.8916473388672	389.2796020507814	-1020.603210449219	-279.1490783691407	237.1291961669922	-1110.997680664063	-367.0138854980469	251.9721832275391	-1130.998413085938	-334.1975097656251	220.3386535644532	-1124.860961914063	-366.4150695800782	148.7764739990235	-1094.82080078125	-469.7779235839845	104.9035186767578	-1092.570068359375	-416.3381958007814	100.018180847168	-1020.586120605469	-528.6470947265626	48.89671325683595	-1045.862426757813	-309.2619934082032	55.50352096557619	-1082.333618164063	-321.7146301269532	53.89745712280275	-1127.808959960938	-378.5224609375001	31.9295768737793	-1165.469604492188	-423.1605529785157	511.4735412597657	-558.3583984375001	-359.7841186523438	518.9263916015626	-538.0993041992189	-342.4413452148438	547.5499877929689	-545.0209350585939	-307.3688049316407	455.8460083007814	-516.8943481445314	-225.5561676025391	416.3659973144532	-491.2127075195314	-180.5289154052735	392.1726379394532	-616.3690795898439	-265.7190551757813	248.3591766357422	-518.1556396484376	-374.6903686523438	238.0182037353516	-529.4494628906251	-339.0684509277344	206.0692596435547	-526.2449951171876	-347.1563720703126	158.3122100830078	-558.1232299804689	-457.8272094726564	101.0730438232422	-568.5119628906251	-407.1801147460939	96.54760742187503	-641.9180297851564	-509.6075439453126	50.38711166381837	-639.5646972656251	-304.0795288085938	54.97698974609376	-550.3912963867189	-323.4267272949219	57.4560012817383	-514.9615478515626	-384.681121826172	36.84480285644532	-484.0036926269532	-463.6223754882814	610.7111816406251	-921.557556152344	nan	nan	nan	nan	nan	nan	nan	nan	nan	
1000	4.995	-138.9542541503907	1238.96875	-860.9753417968752	-253.5609436035157	1166.015747070313	-899.879821777344	-298.2785949707032	1120.54150390625	-767.0180053710939	-296.4189147949219	1055.129028320313	-815.4436645507815	-492.8753662109376	820.9827270507815	-812.327819824219	-209.8377227783204	930.113220214844	-818.630065917969	-209.4785308837891	983.6170043945315	-989.851257324219	-328.2238769531251	910.8662109375002	-1145.7568359375	-349.1925354003907	867.6441650390627	-1137.979248046875	-378.3655090332032	884.0847167968752	-1187.396728515625	-431.3138122558595	865.3446044921877	-1227.80419921875	-479.5243530273439	915.6269531250002	-1198.379272460938	-606.9421386718751	725.1071777343751	-1030.460327148438	-589.8995971679689	670.0823364257814	-1077.385498046875	-556.1434326171876	705.7487182617189	-989.726013183594	-194.3606262207032	969.7091064453127	-652.2691650390626	-298.3182067871094	935.2117309570315	-478.4267883300782	-306.9909362792969	886.351745605469	-471.9562072753907	-334.8387145996094	910.8530883789065	-423.8793945312501	-377.2377929687501	865.1490478515627	-382.2172851562501	-448.1631164550782	902.507263183594	-413.9602050781251	-490.6048583984376	701.7578735351564	-589.2958374023439	-470.5015563964845	642.4481201171876	-545.4522094726564	-444.7633056640626	685.1544189453126	-645.2099609375001	nan	nan	nan	-602.1694335937501	717.4837646484376	-802.1228637695315	-626.6076660156251	695.0166625976564	-829.647155761719	-624.4607543945314	693.2117919921876	-773.378601074219	-455.3475646972657	488.6760559082032	-1059.74462890625	-376.9073181152344	502.1600341796876	-1091.745849609375	-360.1625366210938	545.2452392578126	-1086.846435546875	-335.7528686523438	460.9937438964845	-1103.177612304688	-227.7488708496094	437.0984497070314	-1136.506958007813	-198.6121673583985	391.7711486816407	-1020.568603515625	-279.9576721191407	237.8525848388672	-1111.097900390625	-367.7769775390626	252.2665252685547	-1131.046508789063	-334.7174682617188	220.7678680419922	-1124.851196289063	-367.0731506347657	149.5809020996094	-1094.836791992188	-469.9705505371095	104.7243118286133	-1092.759643554688	-416.541961669922	100.032470703125	-1020.796569824219	-528.7247924804689	48.58901214599611	-1046.191772460938	-309.4413452148438	55.69216918945314	-1082.357666015625	-321.7277221679688	53.99521636962892	-1127.744750976563	-378.5767822265626	31.90071105957032	-1165.467651367188	-424.0495910644532	514.8432006835939	-558.2847290039064	-360.9050598144532	521.6964721679689	-537.9157104492189	-343.1034545898438	550.3621826171876	-544.4475097656251	-309.1445922851563	458.1238708496095	-517.0748901367189	-226.871566772461	417.7122192382814	-491.6046447753907	-182.2819519042969	393.8992919921876	-616.4594726562501	-266.2642822265626	249.2699432373047	-518.1818847656251	-375.3404541015626	238.273910522461	-529.1892089843751	-339.9503784179688	206.2218627929688	-526.2006225585939	-347.6001281738282	158.688720703125	-557.9053955078126	-458.3276672363282	101.0776748657227	-568.1986083984376	-407.504119873047	96.71607208251956	-641.7521362304689	-509.7371215820314	50.25847625732423	-639.4243164062501	-304.2339172363282	55.05807113647462	-550.3397216796876	-323.5208435058594	57.66862869262697	-514.9295654296876	-384.6378173828126	36.75872039794923	-483.9957580566407	-464.0280151367189	615.8493041992189	-921.774841308594	nan	nan	nan	nan	nan	nan	nan	nan	nan	
